PathFileType	4	(X/Y/Z)	C:/Users/rsk02/Documents/GitHub/TechForParalysis/Code/Model/Data/ABD_NL001_FP03.trc	
DataRate	CameraRate	NumFrames	NumMarkers	Units	OrigDataRate	OrigDataStartFrame	OrigNumFrames	
100.00	100.00	13	24	m	100.00	795	1589	
Frame#	Time	EpL			EpM			rs			us			aa			ai			ts			acc			gu			c7			t8			ij			px			ij_proj_c7			ij_proj_px			ij_proj_ac			ai_proj_aa_x			ai_proj_ts			ai_proj_aa_z			centelbow_humerus			centusrs			centelbow_ulna			ac			ijc			
		X1	Y1	Z1	X2	Y2	Z2	X3	Y3	Z3	X4	Y4	Z4	X5	Y5	Z5	X6	Y6	Z6	X7	Y7	Z7	X8	Y8	Z8	X9	Y9	Z9	X10	Y10	Z10	X11	Y11	Z11	X12	Y12	Z12	X13	Y13	Z13	X14	Y14	Z14	X15	Y15	Z15	X16	Y16	Z16	X17	Y17	Z17	X18	Y18	Z18	X19	Y19	Z19	X20	Y20	Z20	X21	Y21	Z21	X22	Y22	Z22	X23	Y23	Z23	X24	Y24	Z24	

795	7.940	0.10893	1.32607	0.02448	0.14392	1.27808	0.04477	0.17372	1.42048	0.22011	0.12898	1.41204	0.23894	0.12719	1.28097	-0.18858	0.11156	1.13086	-0.22410	0.12010	1.21242	-0.27933	0.15226	1.28526	-0.22253	0.16366	1.24974	-0.20115	0.16184	1.26809	-0.32805	0.10104	1.08926	-0.28671	0.24317	1.21513	-0.28872	0.25738	1.08799	-0.25375	0.16184	1.21513	-0.28872	0.24317	1.08799	-0.28872	0.24317	1.21513	-0.22253	0.12719	1.13086	-0.22410	0.11156	1.21242	-0.22410	0.11156	1.13086	-0.18858	0.12642	1.30208	0.03463	0.15135	1.41626	0.22952	0.12642	1.30208	0.03462	0.15226	1.28526	-0.22250	0.24317	1.21513	-0.28870 
796	7.950	0.11057	1.32053	0.02670	0.14556	1.27197	0.04561	0.17771	1.41002	0.22327	0.13315	1.40141	0.24247	0.12719	1.28065	-0.18728	0.11131	1.13051	-0.22254	0.11965	1.21199	-0.27792	0.15211	1.28488	-0.22136	0.16358	1.24938	-0.19998	0.16265	1.26853	-0.32862	0.10133	1.08938	-0.28948	0.24345	1.21527	-0.28863	0.25722	1.08787	-0.25445	0.16265	1.21527	-0.28863	0.24345	1.08787	-0.28863	0.24345	1.21527	-0.22136	0.12719	1.13051	-0.22254	0.11131	1.21199	-0.22254	0.11131	1.13051	-0.18728	0.12806	1.29625	0.03615	0.15543	1.40572	0.23287	0.12806	1.29625	0.03615	0.15211	1.28488	-0.22130	0.24345	1.21527	-0.28860 
797	7.960	0.11185	1.31489	0.02878	0.14659	1.26566	0.04639	0.18128	1.39943	0.22653	0.13674	1.39118	0.24593	0.12709	1.27940	-0.18728	0.10908	1.13031	-0.22579	0.11807	1.21291	-0.27938	0.15182	1.28409	-0.22143	0.16299	1.24798	-0.20094	0.16284	1.26856	-0.32872	0.10174	1.08905	-0.29094	0.24352	1.21530	-0.28847	0.25739	1.08775	-0.25488	0.16284	1.21530	-0.28847	0.24352	1.08775	-0.28847	0.24352	1.21530	-0.22143	0.12709	1.13031	-0.22579	0.10908	1.21291	-0.22579	0.10908	1.13031	-0.18728	0.12922	1.29027	0.03759	0.15901	1.39531	0.23623	0.12922	1.29027	0.03758	0.15182	1.28409	-0.22140	0.24352	1.21530	-0.28840 
798	7.970	0.11336	1.30933	0.03071	0.14852	1.25992	0.04691	0.18437	1.38891	0.23058	0.13953	1.38080	0.24934	0.12680	1.27868	-0.18670	0.10821	1.13016	-0.22712	0.11742	1.21342	-0.27964	0.15151	1.28373	-0.22082	0.16258	1.24732	-0.20081	0.16267	1.26842	-0.32851	0.10203	1.08865	-0.29121	0.24344	1.21530	-0.28826	0.25763	1.08772	-0.25493	0.16267	1.21530	-0.28826	0.24344	1.08772	-0.28826	0.24344	1.21530	-0.22082	0.12680	1.13016	-0.22712	0.10821	1.21342	-0.22712	0.10821	1.13016	-0.18670	0.13094	1.28463	0.03881	0.16195	1.38486	0.23996	0.13094	1.28463	0.03881	0.15151	1.28373	-0.22080	0.24344	1.21530	-0.28820 
799	7.980	0.11453	1.30367	0.03255	0.14960	1.25381	0.04752	0.18851	1.37820	0.23356	0.14377	1.37028	0.25264	0.12747	1.27868	-0.18553	0.11038	1.12984	-0.22541	0.11881	1.21299	-0.27824	0.15215	1.28385	-0.21965	0.16356	1.24762	-0.19950	0.16363	1.26869	-0.32963	0.10262	1.08859	-0.29463	0.24376	1.21543	-0.28832	0.25756	1.08764	-0.25561	0.16363	1.21543	-0.28832	0.24376	1.08764	-0.28832	0.24376	1.21543	-0.21965	0.12747	1.12984	-0.22541	0.11038	1.21299	-0.22541	0.11038	1.12984	-0.18553	0.13207	1.27874	0.04003	0.16614	1.37424	0.24310	0.13207	1.27874	0.04003	0.15215	1.28385	-0.21960	0.24376	1.21543	-0.28830 
800	7.990	0.11621	1.29773	0.03415	0.15088	1.24719	0.04769	0.19181	1.36716	0.23648	0.14697	1.35912	0.25526	0.12743	1.27792	-0.18529	0.11012	1.12979	-0.22767	0.11880	1.21379	-0.27909	0.15218	1.28360	-0.21927	0.16349	1.24702	-0.19971	0.16390	1.26897	-0.32947	0.10282	1.08870	-0.29549	0.24388	1.21555	-0.28807	0.25760	1.08763	-0.25585	0.16390	1.21555	-0.28807	0.24388	1.08763	-0.28807	0.24388	1.21555	-0.21927	0.12743	1.12979	-0.22767	0.11012	1.21379	-0.22767	0.11012	1.12979	-0.18529	0.13354	1.27246	0.04092	0.16939	1.36314	0.24587	0.13354	1.27246	0.04091	0.15218	1.28360	-0.21920	0.24388	1.21555	-0.28800 
801	8.000	0.11770	1.29156	0.03561	0.15248	1.24070	0.04761	0.19580	1.35592	0.23851	0.15118	1.34798	0.25785	0.12603	1.27619	-0.18561	0.10397	1.13005	-0.23247	0.11535	1.21526	-0.28131	0.15096	1.28210	-0.21943	0.16108	1.24460	-0.20100	0.16357	1.26933	-0.32787	0.10248	1.08922	-0.29307	0.24396	1.21570	-0.28755	0.25777	1.08774	-0.25552	0.16357	1.21570	-0.28755	0.24396	1.08774	-0.28755	0.24396	1.21570	-0.21943	0.12603	1.13005	-0.23247	0.10397	1.21526	-0.23247	0.10397	1.13005	-0.18561	0.13509	1.26613	0.04161	0.17349	1.35195	0.24818	0.13509	1.26613	0.04160	0.15096	1.28210	-0.21940	0.24396	1.21570	-0.28750 
802	8.010	0.11903	1.28554	0.03699	0.15363	1.23426	0.04763	0.19915	1.34450	0.24132	0.15443	1.33637	0.26034	0.12603	1.27554	-0.18533	0.10248	1.13030	-0.23420	0.11446	1.21610	-0.28186	0.15088	1.28172	-0.21915	0.16073	1.24387	-0.20130	0.16364	1.26942	-0.32766	0.10274	1.08913	-0.29344	0.24404	1.21578	-0.28739	0.25799	1.08776	-0.25569	0.16364	1.21578	-0.28739	0.24404	1.08776	-0.28739	0.24404	1.21578	-0.21915	0.12603	1.13030	-0.23420	0.10248	1.21610	-0.23420	0.10248	1.13030	-0.18533	0.13633	1.25990	0.04231	0.17679	1.34043	0.25083	0.13633	1.25990	0.04230	0.15088	1.28172	-0.21910	0.24404	1.21578	-0.28730 
803	8.020	0.12033	1.27927	0.03837	0.15450	1.22744	0.04764	0.20341	1.33292	0.24268	0.15910	1.32429	0.26242	0.12657	1.27570	-0.18377	0.10463	1.13004	-0.23214	0.11635	1.21570	-0.28011	0.15168	1.28191	-0.21740	0.16167	1.24422	-0.19928	0.16375	1.26967	-0.32711	0.10286	1.08930	-0.29329	0.24422	1.21589	-0.28718	0.25820	1.08776	-0.25590	0.16375	1.21589	-0.28718	0.24422	1.08776	-0.28718	0.24422	1.21589	-0.21740	0.12657	1.13004	-0.23214	0.10463	1.21570	-0.23214	0.10463	1.13004	-0.18377	0.13742	1.25335	0.04301	0.18125	1.32861	0.25255	0.13742	1.25335	0.04300	0.15168	1.28191	-0.21700	0.24422	1.21589	-0.28710 
804	8.030	0.12229	1.27226	0.03956	0.15650	1.22013	0.04678	0.20777	1.32054	0.24356	0.16394	1.31150	0.26419	0.12764	1.27630	-0.18186	0.10842	1.12956	-0.22808	0.11908	1.21463	-0.27731	0.15288	1.28240	-0.21541	0.16336	1.24517	-0.19663	0.16359	1.26940	-0.32732	0.10339	1.08866	-0.29425	0.24413	1.21588	-0.28717	0.25856	1.08773	-0.25617	0.16359	1.21588	-0.28717	0.24413	1.08773	-0.28717	0.24413	1.21588	-0.21541	0.12764	1.12956	-0.22808	0.10842	1.21463	-0.22808	0.10842	1.12956	-0.18186	0.13940	1.24619	0.04317	0.18585	1.31602	0.25388	0.13940	1.24619	0.04317	0.15288	1.28240	-0.21540	0.24413	1.21588	-0.28710 
805	8.040	0.12374	1.26572	0.04073	0.15779	1.21330	0.04641	0.21147	1.30903	0.24491	0.16796	1.29889	0.26569	0.12734	1.27557	-0.18181	0.10635	1.12977	-0.23019	0.11801	1.21543	-0.27816	0.15265	1.28186	-0.21528	0.16268	1.24423	-0.19706	0.16349	1.26955	-0.32689	0.10349	1.08871	-0.29403	0.24416	1.21601	-0.28703	0.25875	1.08781	-0.25631	0.16349	1.21601	-0.28703	0.24416	1.08781	-0.28703	0.24416	1.21601	-0.21528	0.12734	1.12977	-0.23019	0.10635	1.21543	-0.23019	0.10635	1.12977	-0.18181	0.14077	1.23951	0.04357	0.18971	1.30396	0.25530	0.14077	1.23951	0.04356	0.15265	1.28186	-0.21520	0.24416	1.21601	-0.28700 
806	8.050	0.12538	1.25880	0.04177	0.15922	1.20608	0.04572	0.21506	1.29628	0.24566	0.17192	1.28588	0.26708	0.12690	1.27532	-0.18061	0.10701	1.12929	-0.22873	0.11918	1.21480	-0.27685	0.15269	1.28155	-0.21371	0.16255	1.24402	-0.19520	0.16295	1.26954	-0.32597	0.10349	1.08858	-0.29278	0.24402	1.21609	-0.28681	0.25905	1.08789	-0.25632	0.16295	1.21609	-0.28681	0.24402	1.08789	-0.28681	0.24402	1.21609	-0.21371	0.12690	1.12929	-0.22873	0.10701	1.21480	-0.22873	0.10701	1.12929	-0.18061	0.14230	1.23244	0.04374	0.19349	1.29108	0.25637	0.14230	1.23244	0.04374	0.15269	1.28155	-0.21370	0.24402	1.21609	-0.28680 
807	8.060	0.12699	1.25173	0.04265	0.16089	1.19895	0.04490	0.21832	1.28394	0.24708	0.17527	1.27255	0.26817	0.12667	1.27447	-0.17975	0.10742	1.12887	-0.22940	0.11941	1.21490	-0.27662	0.15253	1.28113	-0.21272	0.16247	1.24345	-0.19456	0.16291	1.26963	-0.32625	0.10382	1.08835	-0.29412	0.24392	1.21628	-0.28681	0.25916	1.08801	-0.25674	0.16291	1.21628	-0.28681	0.24392	1.08801	-0.28681	0.24392	1.21628	-0.21272	0.12667	1.12887	-0.22940	0.10742	1.21490	-0.22940	0.10742	1.12887	-0.17975	0.14394	1.22534	0.04377	0.19680	1.27825	0.25762	0.14394	1.22534	0.04377	0.15253	1.28113	-0.21270	0.24392	1.21628	-0.28680 
